<?xml version="1.0" encoding="utf-8"?>
<!-- Generator: Adobe Illustrator 15.0.0, SVG Export Plug-In . SVG Version: 6.00 Build 0)  -->
<!DOCTYPE svg PUBLIC "-//W3C//DTD SVG 1.1//EN" "http://www.w3.org/Graphics/SVG/1.1/DTD/svg11.dtd">
<svg version="1.1" id="Layer_1" xmlns="http://www.w3.org/2000/svg" xmlns:xlink="http://www.w3.org/1999/xlink" x="0px" y="0px"
	 width="25px" height="25px" viewBox="0 0 25 25" enable-background="new 0 0 25 25" xml:space="preserve">
<g>
	<g>
		<polygon fill="#01FAB8" points="11.848,6 11.848,6 11.848,6 		"/>
		<path fill="#01FAB8" d="M8.7,19.617c-0.662-0.469-1.929-1.608-1.929-2.278c0-0.786,0.224-1.173,1.406-2.097
			c1.213-0.946,2.069-2.277,2.069-3.826c0-1.843-0.82-3.64-2.362-4.232h2.323L11.848,6l0,0c0,0-5.494,0-7.327,0
			C2.83,6,1.193,6.659,0,7.69v7.733c0.952,0.793,2.228,1.27,3.726,1.27c0.233,0,0.458-0.004,0.68-0.02
			c-0.217,0.415-0.372,0.883-0.372,1.367c0,0.82,0.44,1.482,0.997,2.025c-0.42,0-0.827,0.012-1.271,0.012
			c-1.393,0-2.675,0.305-3.76,0.811v1.709c0.963-1.11,2.685-1.857,4.535-1.838c0.655,0.006,1.268,0.112,1.822,0.292
			c1.527,1.062,2.622,1.661,2.932,2.872c0.058,0.245,0.09,0.498,0.09,0.754c0,0.109-0.004,0.216-0.012,0.322h1.849
			c0.03-0.205,0.046-0.414,0.046-0.619C11.262,22.258,10.636,20.986,8.7,19.617z M4.785,15.947c-1.887-0.057-3.682-2.112-4.007-4.59
			C0.453,8.878,1.718,6.98,3.605,7.037c1.887,0.057,3.683,2.046,4.009,4.525C7.938,14.039,6.673,16.004,4.785,15.947z"/>
	</g>
	<polygon fill="#01FAB8" points="20.173,9.33 16.981,9.33 16.981,6.164 15.358,6.164 15.358,9.33 12.137,9.33 12.137,10.971 
		15.358,10.971 15.358,14.195 16.981,14.195 16.981,10.969 20.173,10.969 	"/>
</g>
</svg>
