<?xml version="1.0" encoding="utf-8"?>
<!-- Generator: Adobe Illustrator 15.0.0, SVG Export Plug-In . SVG Version: 6.00 Build 0)  -->
<!DOCTYPE svg PUBLIC "-//W3C//DTD SVG 1.1//EN" "http://www.w3.org/Graphics/SVG/1.1/DTD/svg11.dtd">
<svg version="1.1" id="Layer_1" xmlns="http://www.w3.org/2000/svg" xmlns:xlink="http://www.w3.org/1999/xlink" x="0px" y="0px"
	 width="25px" height="25px" viewBox="0 0 25 25" enable-background="new 0 0 25 25" xml:space="preserve">
<path fill="#01FAB8" d="M17.444,8.653c-0.01-0.005-0.021-0.017-0.031-0.027c-0.616-0.549-1.341-0.812-2.174-0.781l-0.025-0.056
	c0.005-0.005,0.01-0.005,0.016-0.005c0.756-0.165,1.202-0.334,1.336-0.519c0.047-0.149-0.01-0.231-0.175-0.251
	c-0.38,0.046-0.729,0.123-1.043,0.241c0.396-0.241,0.55-0.411,0.462-0.499c-0.391,0.01-0.812,0.201-1.254,0.576
	c0.164-0.268,0.227-0.412,0.186-0.438c-0.211,0.139-0.396,0.288-0.555,0.447c-0.335,0.355-0.602,0.684-0.808,0.982l-0.011,0.025
	c-0.529,0.817-0.898,1.639-1.12,2.478l-0.082,0.062l-0.015,0.015c-0.319-0.38-0.699-0.699-1.156-0.957
	c-0.54-0.333-1.173-0.652-1.902-0.96C8.296,8.596,7.489,8.272,6.672,8.02c-0.005,0.869,0.442,1.562,1.331,2.066v0.015
	c-0.313-0.006-0.617,0.041-0.91,0.129c0.057,0.807,0.658,1.362,1.799,1.67l-0.005,0.015c-0.446-0.025-0.817,0.124-1.104,0.432
	c0.375,0.699,1.038,1.033,1.999,1.008c-0.19,0.092-0.339,0.193-0.437,0.309c-0.175,0.174-0.231,0.381-0.175,0.615
	c0.205,0.355,0.575,0.52,1.12,0.494l0,0l0.031,0.036c-0.006,0.005-0.011,0.011-0.016,0.015c-0.94,0.926-2.076,1.342-3.408,1.255
	l-0.02,0.011c-0.812-0.006-1.681-0.375-2.621-1.115c0.945,1.294,2.199,2.229,3.752,2.816c1.777,0.561,3.557,0.601,5.329,0.123h0.03
	c1.723-0.474,3.182-1.445,4.385-2.914c0.555-0.771,0.904-1.506,1.043-2.21c0.899,0.031,1.547-0.216,1.948-0.74l-0.011-0.016
	c-0.298,0.102-0.884,0.072-1.752-0.098v-0.093c0-0.004,0-0.004,0.005,0c0.95-0.103,1.511-0.395,1.69-0.879
	c-0.663,0.247-1.315,0.251-1.963,0.021C18.596,10.132,18.175,9.356,17.444,8.653z"/>
</svg>
